<svg width="148" height="50" viewBox="0 0 148 50" fill="none" xmlns="http://www.w3.org/2000/svg">
<path fill-rule="evenodd" clip-rule="evenodd" d="M11.545 0C10.9125 0 10.3058 0.251276 9.85855 0.69855L0.69855 9.85855C0.251276 10.3058 0 10.9125 0 11.545V12.545C0 12.5683 0.000333944 12.5915 0.000997305 12.6146V35.585C0.000997305 35.9164 0.269626 36.185 0.600997 36.185H3.27818C3.50544 36.185 3.7132 36.0566 3.81483 35.8533L4.35374 34.7755C4.54852 34.386 5.08555 34.3244 5.40465 34.6209C5.745 34.937 6.13045 35.2344 6.561 35.513C7.30766 35.961 8.321 36.185 9.601 36.185C11.6063 36.185 13.2277 35.417 14.465 33.881C15.7023 32.345 16.321 30.0837 16.321 27.097C16.321 24.1317 15.713 21.8917 14.497 20.377C13.281 18.841 11.6917 18.073 9.729 18.073C8.47033 18.073 7.44633 18.329 6.657 18.841C6.47993 18.9511 6.31091 19.067 6.14995 19.1889C5.67327 19.5499 4.769 19.2312 4.769 18.6333V12.6148C4.76966 12.5916 4.77 12.5684 4.77 12.545V12.5329L11.545 5.7579L18.32 12.5329V12.545C18.32 12.5683 18.3203 12.5915 18.321 12.6147V35.585C18.321 35.9164 18.5896 36.185 18.921 36.185H22.489C22.8204 36.185 23.089 35.9164 23.089 35.585V13.93H61.313V35.585C61.313 35.9164 61.5816 36.185 61.913 36.185H65.481C65.8124 36.185 66.081 35.9164 66.081 35.585V27.961C66.081 26.105 66.3477 24.6863 66.881 23.705C67.4357 22.7023 68.4277 22.201 69.857 22.201C71.7343 22.201 72.673 23.4597 72.673 25.977V35.585C72.673 35.9164 72.9416 36.185 73.273 36.185H76.841C77.1724 36.185 77.441 35.9164 77.441 35.585V24.793C77.441 22.553 76.865 20.9317 75.713 19.929C74.561 18.905 73.0463 18.393 71.169 18.393C70.1023 18.393 69.1317 18.5957 68.257 19.001C67.9977 19.1212 67.7497 19.2629 67.5145 19.4262C67.0183 19.7708 66.081 19.448 66.081 18.8439V12.615C66.0817 12.5917 66.082 12.5684 66.082 12.545V11.545C66.082 10.9125 65.8307 10.3058 65.3835 9.85855L56.2235 0.69855C55.7762 0.251276 55.1695 0 54.537 0H11.545ZM21.6929 9.16L17.3029 4.77H53.5491L57.9391 9.16H21.6929ZM8.193 21.881C6.95566 21.881 6.081 22.2757 5.569 23.065C5.057 23.833 4.79033 24.9957 4.769 26.553V27.065C4.769 28.7503 5.01433 30.0517 5.505 30.969C6.017 31.865 6.93433 32.313 8.257 32.313C9.23833 32.313 10.017 31.865 10.593 30.969C11.169 30.0517 11.457 28.7397 11.457 27.033C11.457 25.3263 11.1583 24.0463 10.561 23.193C9.985 22.3183 9.19566 21.881 8.193 21.881ZM40.617 18.393C40.9484 18.393 41.217 18.6616 41.217 18.993V35.585C41.217 35.9164 40.9484 36.185 40.617 36.185H37.9398C37.7126 36.185 37.5048 36.0566 37.4032 35.8533L36.9299 34.9067C36.7198 34.4866 36.1239 34.4639 35.774 34.7772C35.4001 35.112 34.9653 35.3307 34.369 35.577C33.409 35.9823 32.385 36.185 31.297 36.185C29.4197 36.185 27.9157 35.6837 26.785 34.681C25.6543 33.657 25.089 32.025 25.089 29.785V18.993C25.089 18.6616 25.3576 18.393 25.689 18.393H29.257C29.5884 18.393 29.857 18.6616 29.857 18.993V28.601C29.857 29.8597 30.081 30.809 30.529 31.449C30.977 32.0677 31.6917 32.377 32.673 32.377C34.1237 32.377 35.1157 31.8863 35.649 30.905C36.1823 29.9023 36.449 28.473 36.449 26.617V18.993C36.449 18.6616 36.7176 18.393 37.049 18.393H40.617ZM57.201 20.153C55.793 18.7663 53.8837 18.073 51.473 18.073C49.8303 18.073 48.3903 18.4143 47.153 19.097C45.9157 19.7797 44.945 20.8037 44.241 22.169C43.5583 23.5343 43.217 25.2303 43.217 27.257C43.217 29.2837 43.601 30.9583 44.369 32.281C45.137 33.5823 46.193 34.5637 47.537 35.225C48.881 35.865 50.4277 36.185 52.177 36.185C53.521 36.185 54.6623 36.0783 55.601 35.865C56.4188 35.6977 57.2123 35.4414 57.9815 35.096C58.1908 35.002 58.321 34.7915 58.321 34.5621V32.2091C58.321 31.7676 57.8595 31.4761 57.4514 31.6445C56.7708 31.9253 56.1006 32.1481 55.441 32.313C54.5237 32.5263 53.5103 32.633 52.401 32.633C51.057 32.633 50.001 32.249 49.233 31.481C48.6047 30.8347 48.2256 29.9846 48.0958 28.9304C48.0544 28.5941 48.3295 28.313 48.6684 28.313H58.713C59.0444 28.313 59.313 28.0444 59.313 27.713V26.009C59.313 23.4703 58.609 21.5183 57.201 20.153ZM49.201 22.361C49.7983 21.7637 50.5663 21.465 51.505 21.465C52.6143 21.465 53.4357 21.817 53.969 22.521C54.412 23.0833 54.6849 23.7545 54.7877 24.5345C54.8316 24.8678 54.5568 25.145 54.2206 25.145H48.798C48.4466 25.145 48.1672 24.8435 48.2265 24.4972C48.3864 23.5628 48.7112 22.8508 49.201 22.361ZM94.065 33.817C95.601 32.2383 96.369 29.9983 96.369 27.097C96.369 25.177 96.0063 23.545 95.281 22.201C94.5557 20.857 93.5637 19.833 92.305 19.129C91.0463 18.425 89.5957 18.073 87.953 18.073C85.3077 18.073 83.2277 18.8517 81.713 20.409C80.1983 21.9663 79.441 24.1957 79.441 27.097C79.441 29.0383 79.8037 30.6917 80.529 32.057C81.2543 33.401 82.2463 34.425 83.505 35.129C84.785 35.833 86.2357 36.185 87.857 36.185C90.481 36.185 92.5503 35.3957 94.065 33.817ZM85.137 31.033C84.5823 30.137 84.305 28.825 84.305 27.097C84.305 25.369 84.5823 24.0783 85.137 23.225C85.713 22.3503 86.6303 21.913 87.889 21.913C89.169 21.913 90.0863 22.3503 90.641 23.225C91.217 24.0783 91.505 25.369 91.505 27.097C91.505 28.825 91.217 30.137 90.641 31.033C90.0863 31.9077 89.1797 32.345 87.921 32.345C86.641 32.345 85.713 31.9077 85.137 31.033ZM113.897 18.393C114.228 18.393 114.497 18.6616 114.497 18.993V35.585C114.497 35.9164 114.228 36.185 113.897 36.185H111.22C110.993 36.185 110.785 36.0566 110.683 35.8533L110.21 34.9067C110 34.4866 109.404 34.4639 109.054 34.7772C108.68 35.112 108.245 35.3307 107.649 35.577C106.689 35.9823 105.665 36.185 104.577 36.185C102.7 36.185 101.196 35.6837 100.065 34.681C98.9343 33.657 98.369 32.025 98.369 29.785V18.993C98.369 18.6616 98.6376 18.393 98.969 18.393H102.537C102.868 18.393 103.137 18.6616 103.137 18.993V28.601C103.137 29.8597 103.361 30.809 103.809 31.449C104.257 32.0677 104.972 32.377 105.953 32.377C107.404 32.377 108.396 31.8863 108.929 30.905C109.462 29.9023 109.729 28.473 109.729 26.617V18.993C109.729 18.6616 109.998 18.393 110.329 18.393H113.897ZM127.857 34.777C129.116 33.817 129.745 32.4517 129.745 30.681C129.745 29.657 129.542 28.8143 129.137 28.153C128.753 27.4917 128.198 26.9477 127.473 26.521C126.748 26.073 125.884 25.6463 124.881 25.241C123.857 24.8143 123.078 24.473 122.545 24.217C122.033 23.961 121.681 23.7263 121.489 23.513C121.318 23.2783 121.233 23.0223 121.233 22.745C121.233 21.977 121.937 21.593 123.345 21.593C124.134 21.593 124.913 21.721 125.681 21.977C126.28 22.1601 126.905 22.3821 127.556 22.6431C127.865 22.7667 128.218 22.6241 128.346 22.3178L129.33 19.98C129.454 19.6833 129.323 19.3398 129.028 19.2129C128.167 18.8437 127.329 18.5704 126.513 18.393C125.532 18.1797 124.497 18.073 123.409 18.073C121.318 18.073 119.644 18.4783 118.385 19.289C117.126 20.0997 116.497 21.3157 116.497 22.937C116.497 23.9183 116.668 24.7397 117.009 25.401C117.35 26.041 117.862 26.5957 118.545 27.065C119.249 27.513 120.156 27.9717 121.265 28.441C122.396 28.9103 123.228 29.2943 123.761 29.593C124.294 29.8917 124.636 30.1583 124.785 30.393C124.956 30.6277 125.041 30.8943 125.041 31.193C125.041 31.641 124.838 32.0037 124.433 32.281C124.028 32.5583 123.366 32.697 122.449 32.697C121.617 32.697 120.657 32.5583 119.569 32.281C118.805 32.0863 118.078 31.8548 117.388 31.5864C116.981 31.4283 116.529 31.7204 116.529 32.1568V34.7603C116.529 35.0029 116.675 35.2228 116.901 35.309C117.652 35.5942 118.402 35.8009 119.153 35.929C120.028 36.0997 121.073 36.185 122.289 36.185C124.764 36.185 126.62 35.7157 127.857 34.777ZM139.393 18.073C141.804 18.073 143.713 18.7663 145.121 20.153C146.529 21.5183 147.233 23.4703 147.233 26.009V27.713C147.233 28.0444 146.964 28.313 146.633 28.313H136.588C136.25 28.313 135.974 28.5941 136.016 28.9304C136.146 29.9846 136.525 30.8347 137.153 31.481C137.921 32.249 138.977 32.633 140.321 32.633C141.43 32.633 142.444 32.5263 143.361 32.313C144.021 32.1481 144.691 31.9253 145.371 31.6445C145.78 31.4761 146.241 31.7676 146.241 32.2091V34.5621C146.241 34.7915 146.111 35.002 145.901 35.096C145.132 35.4414 144.339 35.6977 143.521 35.865C142.582 36.0783 141.441 36.185 140.097 36.185C138.348 36.185 136.801 35.865 135.457 35.225C134.113 34.5637 133.057 33.5823 132.289 32.281C131.521 30.9583 131.137 29.2837 131.137 27.257C131.137 25.2303 131.478 23.5343 132.161 22.169C132.865 20.8037 133.836 19.7797 135.073 19.097C136.31 18.4143 137.75 18.073 139.393 18.073ZM139.425 21.465C138.486 21.465 137.718 21.7637 137.121 22.361C136.631 22.8508 136.306 23.5628 136.146 24.4971C136.087 24.8435 136.367 25.145 136.718 25.145H142.141C142.477 25.145 142.752 24.8678 142.708 24.5345C142.605 23.7545 142.332 23.0833 141.889 22.521C141.356 21.817 140.534 21.465 139.425 21.465Z" fill="url(#paint0_linear)"/>
<path fill-rule="evenodd" clip-rule="evenodd" d="M94.472 49.16C94.472 49.4914 94.2034 49.76 93.872 49.76H91.984C91.6526 49.76 91.384 49.4914 91.384 49.16V41.128C91.384 40.7966 91.1154 40.528 90.784 40.528H89.2C88.8686 40.528 88.6 40.2594 88.6 39.928V38.6C88.6 38.2686 88.8686 38 89.2 38H96.656C96.9874 38 97.256 38.2686 97.256 38.6V39.928C97.256 40.2594 96.9874 40.528 96.656 40.528H95.072C94.7406 40.528 94.472 40.7966 94.472 41.128V49.16ZM87 46.128C87 46.7573 86.84 47.3493 86.52 47.904C86.2107 48.448 85.7253 48.896 85.064 49.248C84.4133 49.5893 83.5653 49.76 82.52 49.76C81.9973 49.76 81.5387 49.7333 81.144 49.68C80.76 49.6373 80.3973 49.5627 80.056 49.456C79.8248 49.3837 79.5887 49.2968 79.3477 49.1952C79.1335 49.1049 79 48.8917 79 48.6592V47.2588C79 46.8128 79.4712 46.5203 79.8867 46.6825C80.2137 46.81 80.5421 46.9185 80.872 47.008C81.5013 47.168 82.072 47.248 82.584 47.248C83.0427 47.248 83.3787 47.168 83.592 47.008C83.8053 46.848 83.912 46.6453 83.912 46.4C83.912 46.1013 83.752 45.8613 83.432 45.68C83.1227 45.4987 82.5947 45.2373 81.848 44.896C81.2827 44.64 80.792 44.3627 80.376 44.064C79.96 43.7653 79.64 43.4027 79.416 42.976C79.192 42.5493 79.08 42.0107 79.08 41.36C79.08 40.624 79.2613 40.0107 79.624 39.52C79.9867 39.0187 80.488 38.6453 81.128 38.4C81.7787 38.144 82.5307 38.016 83.384 38.016C84.1307 38.016 84.8027 38.1013 85.4 38.272C85.779 38.3803 86.1322 38.495 86.4597 38.6162C86.7638 38.7287 86.9051 39.0716 86.7858 39.373L86.2885 40.6288C86.1621 40.9481 85.7945 41.0943 85.4737 40.9717C85.1805 40.8597 84.8893 40.7651 84.6 40.688C84.1307 40.5493 83.6933 40.48 83.288 40.48C82.8827 40.48 82.5893 40.5493 82.408 40.688C82.2267 40.8267 82.136 41.0027 82.136 41.216C82.136 41.3973 82.2053 41.5573 82.344 41.696C82.4827 41.8347 82.712 41.9893 83.032 42.16C83.3627 42.32 83.8107 42.528 84.376 42.784C84.9307 43.04 85.4 43.312 85.784 43.6C86.1787 43.888 86.4773 44.2347 86.68 44.64C86.8933 45.0453 87 45.5413 87 46.128ZM108.632 45.056V38.6C108.632 38.2686 108.363 38 108.032 38H106.144C105.813 38 105.544 38.2686 105.544 38.6V44.864C105.544 45.6747 105.4 46.2667 105.112 46.64C104.835 47.0027 104.381 47.184 103.752 47.184C103.165 47.184 102.717 47.0027 102.408 46.64C102.109 46.2773 101.96 45.6907 101.96 44.88V38.6C101.96 38.2686 101.691 38 101.36 38H99.456C99.1246 38 98.856 38.2686 98.856 38.6V45.12C98.856 46.6027 99.2667 47.7493 100.088 48.56C100.92 49.36 102.125 49.76 103.704 49.76C105.347 49.76 106.579 49.3387 107.4 48.496C108.221 47.6427 108.632 46.496 108.632 45.056ZM119.928 43.808C119.928 45.1307 119.677 46.2347 119.176 47.12C118.685 48.0053 117.992 48.6667 117.096 49.104C116.2 49.5413 115.144 49.76 113.928 49.76H110.832C110.501 49.76 110.232 49.4914 110.232 49.16V38.6C110.232 38.2686 110.501 38 110.832 38H114.184C116.019 38 117.432 38.4693 118.424 39.408C119.427 40.3467 119.928 42.0373 119.928 43.808ZM116.728 43.92C116.728 41.8613 115.891 40.496 114.216 40.496H113.92C113.589 40.496 113.32 40.7646 113.32 41.096V46.632C113.32 46.9634 113.589 47.232 113.92 47.232H114.008C114.947 47.232 115.635 46.96 116.072 46.416C116.509 45.872 116.728 45.04 116.728 43.92ZM124.632 49.16C124.632 49.4914 124.363 49.76 124.032 49.76H122.128C121.797 49.76 121.528 49.4914 121.528 49.16V38.6C121.528 38.2686 121.797 38 122.128 38H124.032C124.363 38 124.632 38.2686 124.632 38.6V49.16ZM137.336 43.872C137.336 45.056 137.144 46.0907 136.76 46.976C136.387 47.8507 135.789 48.5333 134.968 49.024C134.147 49.5147 133.085 49.76 131.784 49.76C130.504 49.76 129.453 49.5147 128.632 49.024C127.811 48.5333 127.203 47.8453 126.808 46.96C126.424 46.0747 126.232 45.04 126.232 43.856C126.232 42.672 126.429 41.6427 126.824 40.768C127.219 39.8933 127.821 39.216 128.632 38.736C129.453 38.2453 130.509 38 131.8 38C133.101 38 134.157 38.2453 134.968 38.736C135.789 39.216 136.387 39.8987 136.76 40.784C137.144 41.6587 137.336 42.688 137.336 43.872ZM129.48 43.872C129.48 44.9067 129.656 45.7173 130.008 46.304C130.371 46.8907 130.963 47.184 131.784 47.184C132.637 47.184 133.235 46.8907 133.576 46.304C133.917 45.7173 134.088 44.9067 134.088 43.872C134.088 42.8373 133.917 42.0213 133.576 41.424C133.235 40.8267 132.643 40.528 131.8 40.528C130.957 40.528 130.36 40.8267 130.008 41.424C129.656 42.0213 129.48 42.8373 129.48 43.872ZM145.88 47.904C146.2 47.3493 146.36 46.7573 146.36 46.128C146.36 45.5413 146.253 45.0453 146.04 44.64C145.837 44.2347 145.539 43.888 145.144 43.6C144.76 43.312 144.291 43.04 143.736 42.784C143.171 42.528 142.723 42.32 142.392 42.16C142.072 41.9893 141.843 41.8347 141.704 41.696C141.565 41.5573 141.496 41.3973 141.496 41.216C141.496 41.0027 141.587 40.8267 141.768 40.688C141.949 40.5493 142.243 40.48 142.648 40.48C143.053 40.48 143.491 40.5493 143.96 40.688C144.249 40.7651 144.541 40.8597 144.834 40.9717C145.154 41.0943 145.522 40.9481 145.648 40.6288L146.146 39.373C146.265 39.0716 146.124 38.7287 145.82 38.6162C145.492 38.495 145.139 38.3803 144.76 38.272C144.163 38.1013 143.491 38.016 142.744 38.016C141.891 38.016 141.139 38.144 140.488 38.4C139.848 38.6453 139.347 39.0187 138.984 39.52C138.621 40.0107 138.44 40.624 138.44 41.36C138.44 42.0107 138.552 42.5493 138.776 42.976C139 43.4027 139.32 43.7653 139.736 44.064C140.152 44.3627 140.643 44.64 141.208 44.896C141.955 45.2373 142.483 45.4987 142.792 45.68C143.112 45.8613 143.272 46.1013 143.272 46.4C143.272 46.6453 143.165 46.848 142.952 47.008C142.739 47.168 142.403 47.248 141.944 47.248C141.432 47.248 140.861 47.168 140.232 47.008C139.902 46.9185 139.574 46.81 139.247 46.6825C138.831 46.5203 138.36 46.8128 138.36 47.2588V48.6592C138.36 48.8917 138.494 49.1049 138.708 49.1952C138.949 49.2968 139.185 49.3837 139.416 49.456C139.757 49.5627 140.12 49.6373 140.504 49.68C140.899 49.7333 141.357 49.76 141.88 49.76C142.925 49.76 143.773 49.5893 144.424 49.248C145.085 48.896 145.571 48.448 145.88 47.904Z" fill="url(#paint1_linear)"/>
<defs>
<linearGradient id="paint0_linear" x1="73.616" y1="0" x2="73.616" y2="36.185" gradientUnits="userSpaceOnUse">
<stop stop-color="#2A8CFF"/>
<stop offset="0.489883" stop-color="#0057FF"/>
<stop offset="1" stop-color="#0057FF"/>
<stop offset="1" stop-color="#0057FF"/>
</linearGradient>
<linearGradient id="paint1_linear" x1="112.68" y1="38" x2="112.68" y2="49.76" gradientUnits="userSpaceOnUse">
<stop stop-color="white"/>
<stop offset="1" stop-color="#DAEBFF"/>
</linearGradient>
</defs>
</svg>
